<svg xmlns="http://www.w3.org/2000/svg" viewBox="0 0 1102.67 227.4"><defs><style>.cls-1{fill:#fff;}</style></defs><g id="Layer_2" data-name="Layer 2"><g id="Layer_1-2" data-name="Layer 1"><g id="Layer_2-2" data-name="Layer 2"><g id="Layer_1-2-2" data-name="Layer 1-2"><g id="Layer_2-2-2" data-name="Layer 2-2"><g id="Layer_1-2-2-2" data-name="Layer 1-2-2"><g id="Layer_2-2-2-2" data-name="Layer 2-2-2"><g id="Layer_1-2-2-2-2" data-name="Layer 1-2-2-2"><g id="Layer_2-2-2-2-2" data-name="Layer 2-2-2-2"><g id="Layer_1-2-2-2-2-2" data-name="Layer 1-2-2-2-2"><path class="cls-1" d="M390.57,181.8l-.7-15.3a78,78,0,0,1-8,7.2,54.46,54.46,0,0,1-9.2,5.7,47.5,47.5,0,0,1-11,3.7,56.8,56.8,0,0,1-13,1.3,48.1,48.1,0,0,1-16.4-2.6,32.44,32.44,0,0,1-11.8-7.4,29.14,29.14,0,0,1-7.2-11.4,43.3,43.3,0,0,1-2.5-14.7,31.49,31.49,0,0,1,3.7-15.3,32.27,32.27,0,0,1,11.1-12.1,58.18,58.18,0,0,1,18.7-7.9,110.35,110.35,0,0,1,26.3-2.9h15.9v-7a22.34,22.34,0,0,0-1.3-8.1,15.41,15.41,0,0,0-4.2-6.2,19.73,19.73,0,0,0-7.6-3.9,40.24,40.24,0,0,0-11.5-1.4,95.12,95.12,0,0,0-21.2,2.4,123.7,123.7,0,0,0-20.3,6.6V70.1a117.87,117.87,0,0,1,20.2-5.5,126.76,126.76,0,0,1,23.8-2.2c9,0,16.8.8,23.2,2.5s11.8,4.1,16,7.4a28.63,28.63,0,0,1,9.3,12.4,46.41,46.41,0,0,1,3,17.3v79.8Zm-4.1-51.6h-17.8a49.06,49.06,0,0,0-12.6,1.4,23.68,23.68,0,0,0-8.4,3.8A15,15,0,0,0,343,141a15.65,15.65,0,0,0-1.5,6.7c0,4.8,1.6,8.4,4.8,10.9s7.5,3.7,13,3.7c4.1,0,8.3-1.4,12.7-4.3a84.19,84.19,0,0,0,14.5-12.2Z"/><path class="cls-1" d="M488.37,41.1h-34.3V19.2h64.3V159.9h35.1v21.9H449.87V159.9h38.5Z"/><path class="cls-1" d="M693.27,121.3c0,10.7-1.6,20-4.7,27.8a51.8,51.8,0,0,1-33.1,31,81.17,81.17,0,0,1-25,3.7,69.31,69.31,0,0,1-9.1-.6c-2.8-.4-5.6-.9-8.3-1.5v45.7h-29.2V64.9h25.2l.7,17.3a99.44,99.44,0,0,1,7.7-8.2,53.24,53.24,0,0,1,8.7-6.3,41.71,41.71,0,0,1,10.1-4,49.78,49.78,0,0,1,12.1-1.4,43.42,43.42,0,0,1,19.1,4.1,39.26,39.26,0,0,1,14.1,11.8,55,55,0,0,1,8.7,18.5A92.37,92.37,0,0,1,693.27,121.3Zm-30.6,1.2a83,83,0,0,0-1.4-16.5,37.61,37.61,0,0,0-4.1-11.2,17.55,17.55,0,0,0-6.6-6.4,19.61,19.61,0,0,0-8.9-2c-4.9,0-9.7,1.9-14.2,5.8a100.74,100.74,0,0,0-14.3,15.6v51.1a63.44,63.44,0,0,0,8.6,2.1,71,71,0,0,0,10.4.8,27.89,27.89,0,0,0,22.3-10.6,38,38,0,0,0,6.2-12.4A68.36,68.36,0,0,0,662.67,122.5Z"/><path class="cls-1" d="M791.17,181.8V105.6c0-12.8-4.9-19.2-14.8-19.2-4.9,0-9.7,1.9-14.2,5.8a100.74,100.74,0,0,0-14.3,15.6v74h-29.2V19.2h29.2v40l-1.4,21.2c2.5-2.8,5-5.4,7.5-7.7a36,36,0,0,1,8.3-5.7,41.06,41.06,0,0,1,9.6-3.5,54.63,54.63,0,0,1,11.4-1.2,43.25,43.25,0,0,1,16.3,2.9,31.74,31.74,0,0,1,11.6,8.3,36,36,0,0,1,7,12.9,56.85,56.85,0,0,1,2.3,16.9v78.5Z"/><path class="cls-1" d="M892.67,86.8h-34.3V64.9h64.3v95h35.1v21.9H854.07V159.9h38.5V86.8ZM925,32.9a19.44,19.44,0,0,1-1.4,7.1,17.72,17.72,0,0,1-4,5.8,18.23,18.23,0,0,1-6,3.9,17.56,17.56,0,0,1-7.5,1.4,21.68,21.68,0,0,1-7.6-1.4,18.76,18.76,0,0,1-6.1-3.9,16.85,16.85,0,0,1-4-5.8,17.31,17.31,0,0,1-1.4-7.1,19.44,19.44,0,0,1,1.4-7.1,19.92,19.92,0,0,1,4-5.9,17.85,17.85,0,0,1,6.1-4,19.78,19.78,0,0,1,7.6-1.4,21.13,21.13,0,0,1,7.5,1.4,18.67,18.67,0,0,1,6,4,18.14,18.14,0,0,1,4,5.9A19.44,19.44,0,0,1,925,32.9Z"/><path class="cls-1" d="M1066.37,181.8l-27.8-39.4-27.8,39.4h-35.3l45.6-58.9-43.2-58h35.5l27.3,38.4,26.9-38.4h32.8l-41.9,57.8,44.2,59.1Z"/></g></g></g></g><path class="cls-1" d="M113.7,0A113.7,113.7,0,1,0,227.4,113.7h0A113.72,113.72,0,0,0,113.7,0ZM31.88,113.73v-.06A82,82,0,0,1,97.8,33.42V194A81.86,81.86,0,0,1,31.88,113.73ZM129.65,194V33.41a81.85,81.85,0,0,1,0,160.58Z"/></g></g></g></g></g></g></svg>