<?xml version="1.0" encoding="utf-8"?>
<!-- Generator: Adobe Illustrator 25.0.0, SVG Export Plug-In . SVG Version: 6.00 Build 0)  -->
<svg version="1.1" id="Layer_1" xmlns="http://www.w3.org/2000/svg" xmlns:xlink="http://www.w3.org/1999/xlink" x="0px" y="0px"
	 viewBox="0 0 85.7 85.7" style="enable-background:new 0 0 85.7 85.7;" xml:space="preserve">
<path d="M42.8,0C19.2,0,0,19.2,0,42.8c0,23.7,19.2,42.8,42.8,42.8c23.7,0,42.8-19.2,42.8-42.8c0,0,0,0,0,0C85.7,19.2,66.5,0,42.8,0z
	 M12,42.8C12,42.8,12,42.8,12,42.8c0-15,10.7-27.5,24.8-30.3v60.5C22.7,70.3,12,57.8,12,42.8z M48.8,73.1V12.6
	C63,15.4,73.7,27.9,73.7,42.8C73.7,57.8,63,70.3,48.8,73.1z"/>
</svg>
